<svg width="57" height="57" viewBox="0 0 57 57" fill="none" xmlns="http://www.w3.org/2000/svg">
<path d="M22 0.888672C10.3657 0.888672 0.888672 10.3657 0.888672 22C0.888672 33.6343 10.3657 43.1113 22 43.1113C27.0366 43.1113 31.6647 41.3313 35.2988 38.373L50.1309 56.9531C50.1309 56.9531 53.3795 57.436 55.3965 55.334C57.4275 53.216 56.9512 50.1348 56.9512 50.1348L38.373 35.2988C41.3313 31.6647 43.1113 27.0365 43.1113 22C43.1113 10.3657 33.6343 0.888672 22 0.888672ZM22 5.11133C31.3525 5.11133 38.8887 12.6475 38.8887 22C38.8887 31.3525 31.3525 38.8887 22 38.8887C12.6475 38.8887 5.11133 31.3525 5.11133 22C5.11133 12.6475 12.6475 5.11133 22 5.11133Z" fill="#4AD6FD"/>
</svg>
